<svg xmlns="http://www.w3.org/2000/svg" version="1.1" xmlns:xlink="http://www.w3.org/1999/xlink" xmlns:svgjs="http://svgjs.dev/svgjs" viewBox="0 0 1920 1080"><rect width="1920" height="1080" fill="#000000"></rect><g transform="matrix(1.15,0,0,1.15,-136.9638381958007,-81)"><path d="M0,-1080C-6.398090892685133,-992.9994891320187,-25.314984841579722,-771.1258072917682,-38.3885453561108,-557.9969347921121C-51.46210587064187,-344.8680622924561,-102.80941301251723,-19.667612495593744,-78.44136308718646,198.77323499793647C-54.073313161855694,417.2140824914667,110.00413907925024,550.3641037698266,107.81975419587383,752.6481501690691C105.63536931249742,954.9321965683117,-73.57771335479926,1177.9188717549034,-91.54767238744489,1412.477513393392C-109.51763142009052,1647.0361550318805,-15.257945397907482,2035.4129188988986,0,2160L 1920 2160 L 1920 -1080 Z" fill="url(&quot;#SvgjsLinearGradient1000&quot;)"></path><path d="M320,-1080C300.8679086900902,-962.8177435915537,204.74946668742191,-652.9339690831503,205.20745214054114,-376.90646154932216C205.66543759366036,-100.878954015494,323.9992944245183,272.3146719294354,322.7479127187154,576.1650452029689C321.49653101291244,880.0154184765024,198.1571473588426,1182.2232856257071,197.69916190572337,1446.195778091879C197.24117645260415,1710.1682705580508,299.61652698428725,2041.0326296819799,320,2160L 1920 2160 L 1920 -1080 Z" fill="url(&quot;#SvgjsLinearGradient1001&quot;)"></path><path d="M640,-1080C648.0119963398422,-993.1710088301329,685.9055284906104,-750.9288908815759,688.0719780390534,-559.0260529807974C690.2384275874964,-367.123215080019,649.0924779565269,-126.82106849086432,652.9986972906581,71.41702740467059C656.9049166247894,269.6551233002055,696.9076061075921,460.4367806314899,711.5092940438408,630.402522392412C726.1109819800895,800.3682641533342,741.93442068343,947.5896093192605,740.6088249081506,1091.211477970203C739.2832291328713,1234.8333466211457,720.3238568768563,1314.002313959768,703.5557193921645,1492.1337342980673C686.7875819074727,1670.2651546363668,650.5926198986941,2048.6889557163445,640,2160L 1920 2160 L 1920 -1080 Z" fill="url(&quot;#SvgjsLinearGradient1002&quot;)"></path><path d="M960,-1080C946.2567185276935,-965.099015116423,885.4305657377741,-611.5751870492763,877.5403111661609,-390.5940906985374C869.6500565945477,-169.61299434779843,883.4897401018676,55.84725384500862,912.6584725703206,245.88657810443368C941.8272050387735,435.92590236385877,1026.3388824880542,519.0969040288779,1052.5527059768788,749.6418548580131C1078.7665294657033,980.1868056871482,1085.3668644994145,1394.0965922222465,1069.941413503268,1629.1562830792443C1054.5159625071215,1864.215973936242,978.3235689172113,2071.5260471798742,960,2160L 1920 2160 L 1920 -1080 Z" fill="url(&quot;#SvgjsLinearGradient1003&quot;)"></path><path d="M1280,-1080C1297.5180578823079,-994.6580703542824,1367.809466182968,-761.2446374215338,1385.1083472938471,-567.9484221256944C1402.4072284047263,-374.652206829855,1403.6676405739422,-100.86685163490063,1383.793286665275,79.77729177503636C1363.9189327566078,260.42143518497335,1268.361143565032,358.0063702967831,1265.8622238418443,515.9164383339275C1263.3633041186565,673.826506371072,1350.4495590461331,842.251436897907,1368.7997683261485,1027.237699997903C1387.149977606164,1212.2239630978993,1390.7634409096286,1437.0403002668882,1375.9634795219372,1625.8340169339044C1361.1635181342458,1814.6277336009207,1295.9939132536563,2070.9723361556507,1280,2160L 1920 2160 L 1920 -1080 Z" fill="url(&quot;#SvgjsLinearGradient1004&quot;)"></path><path d="M1600,-1080C1582.3996147502303,-1005.0092177415114,1475.0364327017378,-819.0476993900621,1494.3976885013822,-630.0553064490682C1513.7589443010265,-441.0629135080743,1689.8984689226324,-136.7835812305404,1716.1675347978667,53.95435764596351C1742.4366006731009,244.69229652246742,1689.9992664764675,330.763565463708,1652.0120837527872,514.3723268099552C1614.024901029107,697.9810881562024,1516.4477269399986,984.0368189995576,1488.2444384557848,1155.6069257234467C1460.041149971571,1327.177032447336,1464.1664259234694,1376.3941214405313,1482.7923528475053,1543.7929671532902C1501.4182797715412,1711.191812866049,1580.465392141251,2057.298827858882,1600,2160L 1920 2160 L 1920 -1080 Z" fill="url(&quot;#SvgjsLinearGradient1005&quot;)"></path></g><defs><linearGradient x1="0.1" y1="0" x2="0" y2="1" id="SvgjsLinearGradient1000"><stop stop-color="#000000" offset="0"></stop><stop stop-color="#000000" offset="0"></stop></linearGradient><linearGradient x1="0.1" y1="0" x2="0" y2="1" id="SvgjsLinearGradient1001"><stop stop-color="#2a2a2a" offset="0"></stop><stop stop-color="#2a2a2a" offset="0.16666666666666666"></stop></linearGradient><linearGradient x1="0.1" y1="0" x2="0" y2="1" id="SvgjsLinearGradient1002"><stop stop-color="#555555" offset="0"></stop><stop stop-color="#555555" offset="0.3333333333333333"></stop></linearGradient><linearGradient x1="0.1" y1="0" x2="0" y2="1" id="SvgjsLinearGradient1003"><stop stop-color="#7f7f7f" offset="0"></stop><stop stop-color="#7f7f7f" offset="0.5"></stop></linearGradient><linearGradient x1="0.1" y1="0" x2="0" y2="1" id="SvgjsLinearGradient1004"><stop stop-color="#aaaaaa" offset="0"></stop><stop stop-color="#aaaaaa" offset="0.6666666666666666"></stop></linearGradient><linearGradient x1="0.1" y1="0" x2="0" y2="1" id="SvgjsLinearGradient1005"><stop stop-color="#d4d4d4" offset="0"></stop><stop stop-color="#d4d4d4" offset="0.8333333333333334"></stop></linearGradient></defs></svg>